<svg version="1.1" id="Layer_1" xmlns="http://www.w3.org/2000/svg" xmlns:xlink="http://www.w3.org/1999/xlink" x="0px" y="0px"
	 width="100%" viewBox="0 0 357 353" enable-background="new 0 0 357 353" xml:space="preserve">
<path fill="#FFFFFF" opacity="1.000000" stroke="none" 
	d="
M197.000000,354.000000 
	C185.312439,354.000000 173.624878,354.000000 161.795105,353.635559 
	C160.277267,352.514130 158.966949,351.281982 157.514709,351.082336 
	C151.238983,350.219604 144.921661,349.659637 138.619781,348.986694 
	C138.295288,348.952057 137.956436,348.941010 137.653061,348.835876 
	C132.061798,346.898956 126.488960,344.907867 120.882782,343.015411 
	C116.332893,341.479553 111.378586,340.722656 107.248940,338.448486 
	C98.738380,333.761810 90.583260,328.408722 82.425873,323.108276 
	C75.823692,318.818329 68.836266,314.850677 63.102386,309.565491 
	C56.353477,303.344696 49.752655,296.960144 44.017975,289.457031 
	C39.343178,283.340668 35.170452,276.669739 29.911898,270.915924 
	C27.963480,268.783997 26.275528,266.245819 25.096605,263.611908 
	C22.143349,257.013916 20.047400,249.991302 16.679031,243.630737 
	C12.845545,236.391891 10.066491,228.996521 8.947056,220.896698 
	C8.510392,217.737137 7.509017,214.655960 6.770473,211.537750 
	C5.441979,205.928711 3.273959,200.363403 2.973671,194.699402 
	C2.410868,184.083862 2.944669,173.410980 2.978222,162.761826 
	C2.981658,161.671509 2.685319,160.580246 2.672908,160.494141 
	C3.659819,158.795761 4.935650,157.624496 4.900962,156.493439 
	C4.677732,149.214767 7.063549,142.540054 8.624081,135.590363 
	C10.225387,128.459106 12.484332,121.695282 15.041171,114.959694 
	C16.591631,110.875244 18.590839,106.963379 20.301792,102.937157 
	C23.480843,95.456200 28.372803,89.023529 32.520771,82.153183 
	C37.452526,73.984634 43.740486,67.055077 49.358047,59.562012 
	C53.379055,54.198528 58.490429,49.493622 63.718124,45.234825 
	C69.926781,40.176872 76.700790,35.790600 83.384529,31.345903 
	C87.883705,28.353947 92.509285,25.480667 97.337982,23.075628 
	C102.215317,20.646360 107.437500,18.917866 112.463730,16.776985 
	C118.384132,14.255239 124.100700,11.138742 130.193192,9.169968 
	C136.266708,7.207321 142.639603,5.872369 148.983063,5.114630 
	C158.232132,4.009810 167.565491,3.537356 176.876266,3.050322 
	C182.192856,2.772218 187.535919,2.998321 192.867065,3.001510 
	C193.866425,3.002108 194.894882,2.871368 195.860474,3.057570 
	C202.476944,4.333499 209.070831,5.727385 215.691223,6.981798 
	C219.808640,7.761952 224.024094,8.111316 228.071808,9.140591 
	C230.530136,9.765704 232.698288,11.452079 235.093338,12.423748 
	C239.098740,14.048751 243.226730,15.373696 247.220337,17.025162 
	C252.512558,19.213633 257.920532,21.240641 262.914459,23.997091 
	C267.488495,26.521772 271.246521,30.663925 275.955200,32.774765 
	C284.103882,36.427731 290.270538,42.665688 296.772003,48.194099 
	C303.122314,53.594006 309.569336,59.213535 314.035767,66.833397 
	C317.919556,73.459221 323.681549,78.964699 328.386932,85.137993 
	C330.241608,87.571266 331.695831,90.376373 332.959106,93.180344 
	C335.867645,99.636215 339.918304,105.460289 341.574921,112.648338 
	C343.032410,118.972412 346.719696,124.749046 348.910980,130.948151 
	C350.663239,135.905075 351.954834,141.078018 352.889801,146.256393 
	C353.925751,151.993973 355.085968,157.879044 354.841278,163.642532 
	C354.333130,175.611298 356.274872,187.553604 353.371002,199.638931 
	C351.741608,206.420090 350.904724,213.500183 349.374786,220.448853 
	C347.801331,227.595001 345.449799,234.327286 342.949402,241.077911 
	C341.434662,245.167374 339.358612,249.045273 337.663513,253.072433 
	C334.506195,260.573517 329.578766,266.998566 325.480225,273.890839 
	C321.213379,281.066193 315.978027,287.378876 310.799377,293.580719 
	C305.157196,300.337708 298.631989,306.459442 291.406738,312.014465 
	C284.085938,317.642914 276.729767,323.157959 268.932709,328.050079 
	C263.620667,331.382996 258.028564,334.352600 252.313950,336.936798 
	C246.929962,339.371490 241.231628,341.116791 235.653122,343.113831 
	C230.081528,345.108490 224.610504,347.618195 218.869431,348.842621 
	C212.545853,350.191284 205.949524,350.222809 199.512939,351.121399 
	C198.559906,351.254456 197.832031,353.000305 197.000000,354.000000 
z"/>
<path fill="#000000" opacity="1.000000" stroke="none" 
	d="
M197.468658,354.000000 
	C197.832031,353.000305 198.559906,351.254456 199.512939,351.121399 
	C205.949524,350.222809 212.545853,350.191284 218.869431,348.842621 
	C224.610504,347.618195 230.081528,345.108490 235.653122,343.113831 
	C241.231628,341.116791 246.929962,339.371490 252.313950,336.936798 
	C258.028564,334.352600 263.620667,331.382996 268.932709,328.050079 
	C276.729767,323.157959 284.085938,317.642914 291.406738,312.014465 
	C298.631989,306.459442 305.157196,300.337708 310.799377,293.580719 
	C315.978027,287.378876 321.213379,281.066193 325.480225,273.890839 
	C329.578766,266.998566 334.506195,260.573517 337.663513,253.072433 
	C339.358612,249.045273 341.434662,245.167374 342.949402,241.077911 
	C345.449799,234.327286 347.801331,227.595001 349.374786,220.448853 
	C350.904724,213.500183 351.741608,206.420090 353.371002,199.638931 
	C356.274872,187.553604 354.333130,175.611298 354.841278,163.642532 
	C355.085968,157.879044 353.925751,151.993973 352.889801,146.256393 
	C351.954834,141.078018 350.663239,135.905075 348.910980,130.948151 
	C346.719696,124.749046 343.032410,118.972412 341.574921,112.648338 
	C339.918304,105.460289 335.867645,99.636215 332.959106,93.180344 
	C331.695831,90.376373 330.241608,87.571266 328.386932,85.137993 
	C323.681549,78.964699 317.919556,73.459221 314.035767,66.833397 
	C309.569336,59.213535 303.122314,53.594006 296.772003,48.194099 
	C290.270538,42.665688 284.103882,36.427731 275.955200,32.774765 
	C271.246521,30.663925 267.488495,26.521772 262.914459,23.997091 
	C257.920532,21.240641 252.512558,19.213633 247.220337,17.025162 
	C243.226730,15.373696 239.098740,14.048751 235.093338,12.423748 
	C232.698288,11.452079 230.530136,9.765704 228.071808,9.140591 
	C224.024094,8.111316 219.808640,7.761952 215.691223,6.981798 
	C209.070831,5.727385 202.476944,4.333499 195.860474,3.057570 
	C194.894882,2.871368 193.866425,3.002108 192.867065,3.001510 
	C187.535919,2.998321 182.192856,2.772218 176.876266,3.050322 
	C167.565491,3.537356 158.232132,4.009810 148.983063,5.114630 
	C142.639603,5.872369 136.266708,7.207321 130.193192,9.169968 
	C124.100700,11.138742 118.384132,14.255239 112.463730,16.776985 
	C107.437500,18.917866 102.215317,20.646360 97.337982,23.075628 
	C92.509285,25.480667 87.883705,28.353947 83.384529,31.345903 
	C76.700790,35.790600 69.926781,40.176872 63.718124,45.234825 
	C58.490429,49.493622 53.379055,54.198528 49.358047,59.562012 
	C43.740486,67.055077 37.452526,73.984634 32.520771,82.153183 
	C28.372803,89.023529 23.480843,95.456200 20.301792,102.937157 
	C18.590839,106.963379 16.591631,110.875244 15.041171,114.959694 
	C12.484332,121.695282 10.225387,128.459106 8.624081,135.590363 
	C7.063549,142.540054 4.677732,149.214767 4.900962,156.493439 
	C4.935650,157.624496 3.659819,158.795761 2.672908,160.494141 
	C2.685319,160.580246 2.981658,161.671509 2.978222,162.761826 
	C2.944669,173.410980 2.410868,184.083862 2.973671,194.699402 
	C3.273959,200.363403 5.441979,205.928711 6.770473,211.537750 
	C7.509017,214.655960 8.510392,217.737137 8.947056,220.896698 
	C10.066491,228.996521 12.845545,236.391891 16.679031,243.630737 
	C20.047400,249.991302 22.143349,257.013916 25.096605,263.611908 
	C26.275528,266.245819 27.963480,268.783997 29.911898,270.915924 
	C35.170452,276.669739 39.343178,283.340668 44.017975,289.457031 
	C49.752655,296.960144 56.353477,303.344696 63.102386,309.565491 
	C68.836266,314.850677 75.823692,318.818329 82.425873,323.108276 
	C90.583260,328.408722 98.738380,333.761810 107.248940,338.448486 
	C111.378586,340.722656 116.332893,341.479553 120.882782,343.015411 
	C126.488960,344.907867 132.061798,346.898956 137.653061,348.835876 
	C137.956436,348.941010 138.295288,348.952057 138.619781,348.986694 
	C144.921661,349.659637 151.238983,350.219604 157.514709,351.082336 
	C158.966949,351.281982 160.277267,352.514130 161.326447,353.635559 
	C107.683517,354.000000 54.367043,354.000000 1.025282,354.000000 
	C1.025282,236.387375 1.025282,118.774750 1.025282,1.081060 
	C119.908310,1.081060 238.816681,1.081060 357.862549,1.081060 
	C357.862549,118.666565 357.862549,236.333252 357.862549,354.000000 
	C304.570221,354.000000 251.253769,354.000000 197.468658,354.000000 
z"/>
</svg>